P1
# Seasonal example to get started with
20 30
11111110000111111111
11111110000111111111
11110000000000111111
11111110000111111111
11111100000011111111
11111001001001111111
11111000000001111111
11111000000001111111
11011001000101111111
11011100111001111101
00011110000011111101
10011100000001111000
11001000010000110011
11100000000000000111
11110000001000001111
11110000000000001111
11110000000000001111
11110000001000011111
11111000000000111111
11111100000000111111
11111000001000011111
11110000000000011111
11100000000000001111
11100000001000001111
11100000000000000111
11100000001000000111
11100000000000001111
11100000000000001111
11110000001000001111
11110000000000011111
